<svg width="828" height="661" viewBox="0 0 828 661" fill="none" xmlns="http://www.w3.org/2000/svg">
<g clip-path="url(#clip0_17_20)">
<mask id="mask0_17_20" style="mask-type:luminance" maskUnits="userSpaceOnUse" x="83" y="0" width="664" height="468">
<path d="M747 0H83V468H747V0Z" fill="white"/>
</mask>
<g mask="url(#mask0_17_20)">
<path d="M83 468L239.235 234L83 0H200.176L356.412 234L200.176 468H83Z" fill="url(#paint0_linear_17_20)"/>
<path d="M239.235 468L395.471 234L239.235 0H356.412L668.882 468H551.706L454.059 321.75L356.412 468H239.235Z" fill="url(#paint1_linear_17_20)"/>
<path d="M616.836 331.5L564.791 253.5H747.098V331.5H616.934H616.836ZM538.719 214.5L486.673 136.5H747.098V214.5H538.719Z" fill="url(#paint2_linear_17_20)"/>
</g>
</g>
<path d="M10.4384 617V511.3H76.8784V529.42H30.3704V554.939H73.2544V573.059H30.3704V617H10.4384ZM77.3585 617V511.3H96.3845V617H77.3585ZM111.277 647.2V630.59H152.047C154.866 630.59 156.275 629.08 156.275 626.06V607.185H153.557C152.752 608.896 151.493 610.608 149.782 612.319C148.071 614.03 145.755 615.44 142.836 616.547C139.917 617.654 136.192 618.208 131.662 618.208C125.823 618.208 120.689 616.899 116.26 614.282C111.931 611.564 108.559 607.839 106.143 603.108C103.727 598.377 102.519 592.941 102.519 586.8V542.104H121.545V585.29C121.545 590.927 122.904 595.155 125.622 597.974C128.441 600.793 132.417 602.202 137.551 602.202C143.39 602.202 147.92 600.289 151.141 596.464C154.362 592.538 155.973 587.102 155.973 580.156V542.104H174.999V630.288C174.999 635.422 173.489 639.499 170.469 642.519C167.449 645.64 163.422 647.2 158.389 647.2H111.277ZM217.462 619.114C210.012 619.114 203.318 617.604 197.379 614.584C191.439 611.564 186.758 607.185 183.336 601.447C179.913 595.709 178.202 588.813 178.202 580.76V578.344C178.202 570.291 179.913 563.395 183.336 557.657C186.758 551.919 191.439 547.54 197.379 544.52C203.318 541.5 210.012 539.99 217.462 539.99C224.911 539.99 231.605 541.5 237.545 544.52C243.484 547.54 248.165 551.919 251.588 557.657C255.01 563.395 256.722 570.291 256.722 578.344V580.76C256.722 588.813 255.01 595.709 251.588 601.447C248.165 607.185 243.484 611.564 237.545 614.584C231.605 617.604 224.911 619.114 217.462 619.114ZM217.462 602.202C223.3 602.202 228.132 600.34 231.958 596.615C235.783 592.79 237.696 587.354 237.696 580.307V578.797C237.696 571.75 235.783 566.365 231.958 562.64C228.233 558.815 223.401 556.902 217.462 556.902C211.623 556.902 206.791 558.815 202.966 562.64C199.14 566.365 197.228 571.75 197.228 578.797V580.307C197.228 587.354 199.14 592.79 202.966 596.615C206.791 600.34 211.623 602.202 217.462 602.202ZM259.939 617V542.104H278.663V551.919H281.381C282.589 549.302 284.854 546.835 288.176 544.52C291.498 542.104 296.531 540.896 303.276 540.896C309.114 540.896 314.198 542.255 318.527 544.973C322.956 547.59 326.379 551.265 328.795 555.996C331.211 560.627 332.419 566.063 332.419 572.304V617H313.393V573.814C313.393 568.177 311.983 563.949 309.165 561.13C306.447 558.311 302.521 556.902 297.387 556.902C291.548 556.902 287.018 558.865 283.797 562.791C280.575 566.616 278.965 572.002 278.965 578.948V617H259.939ZM398.725 619.114C390.571 619.114 383.374 617.654 377.132 614.735C370.891 611.816 366.009 607.638 362.485 602.202C358.962 596.766 357.2 590.223 357.2 582.572V578.344H376.83V582.572C376.83 588.914 378.793 593.696 382.719 596.917C386.645 600.038 391.981 601.598 398.725 601.598C405.571 601.598 410.654 600.239 413.976 597.521C417.399 594.803 419.11 591.33 419.11 587.102C419.11 584.183 418.255 581.817 416.543 580.005C414.933 578.193 412.517 576.733 409.295 575.626C406.175 574.418 402.349 573.311 397.819 572.304L394.346 571.549C387.098 569.938 380.857 567.925 375.622 565.509C370.488 562.992 366.512 559.721 363.693 555.694C360.975 551.667 359.616 546.433 359.616 539.99C359.616 533.547 361.126 528.061 364.146 523.531C367.267 518.9 371.596 515.377 377.132 512.961C382.77 510.444 389.363 509.186 396.913 509.186C404.463 509.186 411.158 510.495 416.996 513.112C422.936 515.629 427.566 519.454 430.888 524.588C434.311 529.621 436.022 535.963 436.022 543.614V548.144H416.392V543.614C416.392 539.587 415.587 536.366 413.976 533.95C412.466 531.433 410.252 529.621 407.332 528.514C404.413 527.306 400.94 526.702 396.913 526.702C390.873 526.702 386.394 527.86 383.474 530.175C380.656 532.39 379.246 535.46 379.246 539.386C379.246 542.003 379.901 544.218 381.209 546.03C382.619 547.842 384.682 549.352 387.4 550.56C390.118 551.768 393.591 552.825 397.819 553.731L401.292 554.486C408.842 556.097 415.386 558.16 420.922 560.677C426.56 563.194 430.939 566.516 434.059 570.643C437.18 574.77 438.74 580.055 438.74 586.498C438.74 592.941 437.079 598.628 433.757 603.561C430.536 608.393 425.905 612.218 419.865 615.037C413.926 617.755 406.879 619.114 398.725 619.114ZM468.555 617C463.622 617 459.595 615.49 456.475 612.47C453.455 609.349 451.945 605.222 451.945 600.088V557.808H433.221V542.104H451.945V518.85H470.971V542.104H491.507V557.808H470.971V596.766C470.971 599.786 472.38 601.296 475.199 601.296H489.695V617H468.555ZM522.923 618.208C517.084 618.208 511.95 616.899 507.521 614.282C503.192 611.564 499.82 607.839 497.404 603.108C494.988 598.377 493.78 592.941 493.78 586.8V542.104H512.806V585.29C512.806 590.927 514.165 595.155 516.883 597.974C519.702 600.793 523.678 602.202 528.812 602.202C534.651 602.202 539.181 600.289 542.402 596.464C545.623 592.538 547.234 587.102 547.234 580.156V542.104H566.26V617H547.536V607.185H544.818C543.61 609.702 541.345 612.168 538.023 614.584C534.701 617 529.668 618.208 522.923 618.208ZM603.287 619.114C597.347 619.114 591.76 617.654 586.526 614.735C581.392 611.715 577.264 607.336 574.144 601.598C571.023 595.86 569.463 588.914 569.463 580.76V578.344C569.463 570.19 571.023 563.244 574.144 557.506C577.264 551.768 581.392 547.439 586.526 544.52C591.66 541.5 597.247 539.99 603.287 539.99C607.817 539.99 611.592 540.544 614.612 541.651C617.732 542.658 620.249 543.966 622.162 545.577C624.074 547.188 625.534 548.899 626.541 550.711H629.259V511.3H648.285V617H629.561V607.94H626.843C625.131 610.759 622.464 613.326 618.84 615.641C615.316 617.956 610.132 619.114 603.287 619.114ZM609.025 602.504C614.863 602.504 619.746 600.642 623.672 596.917C627.598 593.092 629.561 587.555 629.561 580.307V578.797C629.561 571.549 627.598 566.063 623.672 562.338C619.846 558.513 614.964 556.6 609.025 556.6C603.186 556.6 598.304 558.513 594.378 562.338C590.452 566.063 588.489 571.549 588.489 578.797V580.307C588.489 587.555 590.452 593.092 594.378 596.917C598.304 600.642 603.186 602.504 609.025 602.504ZM655.034 617V542.104H674.06V617H655.034ZM664.547 533.346C661.124 533.346 658.205 532.239 655.789 530.024C653.473 527.809 652.316 524.89 652.316 521.266C652.316 517.642 653.473 514.723 655.789 512.508C658.205 510.293 661.124 509.186 664.547 509.186C668.07 509.186 670.989 510.293 673.305 512.508C675.62 514.723 676.778 517.642 676.778 521.266C676.778 524.89 675.62 527.809 673.305 530.024C670.989 532.239 668.07 533.346 664.547 533.346ZM716.434 619.114C708.985 619.114 702.29 617.604 696.351 614.584C690.412 611.564 685.731 607.185 682.308 601.447C678.885 595.709 677.174 588.813 677.174 580.76V578.344C677.174 570.291 678.885 563.395 682.308 557.657C685.731 551.919 690.412 547.54 696.351 544.52C702.29 541.5 708.985 539.99 716.434 539.99C723.883 539.99 730.578 541.5 736.517 544.52C742.456 547.54 747.137 551.919 750.56 557.657C753.983 563.395 755.694 570.291 755.694 578.344V580.76C755.694 588.813 753.983 595.709 750.56 601.447C747.137 607.185 742.456 611.564 736.517 614.584C730.578 617.604 723.883 619.114 716.434 619.114ZM716.434 602.202C722.273 602.202 727.105 600.34 730.93 596.615C734.755 592.79 736.668 587.354 736.668 580.307V578.797C736.668 571.75 734.755 566.365 730.93 562.64C727.205 558.815 722.373 556.902 716.434 556.902C710.595 556.902 705.763 558.815 701.938 562.64C698.113 566.365 696.2 571.75 696.2 578.797V580.307C696.2 587.354 698.113 592.79 701.938 596.615C705.763 600.34 710.595 602.202 716.434 602.202ZM790.017 619.114C780.252 619.114 772.249 617 766.008 612.772C759.767 608.544 755.992 602.504 754.683 594.652L772.199 590.122C772.904 593.645 774.061 596.414 775.672 598.427C777.383 600.44 779.447 601.9 781.863 602.806C784.38 603.611 787.098 604.014 790.017 604.014C794.446 604.014 797.718 603.259 799.832 601.749C801.946 600.138 803.003 598.175 803.003 595.86C803.003 593.545 801.996 591.783 799.983 590.575C797.97 589.266 794.748 588.209 790.319 587.404L786.091 586.649C780.856 585.642 776.075 584.283 771.746 582.572C767.417 580.76 763.944 578.294 761.327 575.173C758.71 572.052 757.401 568.026 757.401 563.093C757.401 555.644 760.119 549.956 765.555 546.03C770.991 542.003 778.138 539.99 786.997 539.99C795.352 539.99 802.298 541.852 807.835 545.577C813.372 549.302 816.996 554.184 818.707 560.224L801.04 565.66C800.235 561.835 798.574 559.117 796.057 557.506C793.641 555.895 790.621 555.09 786.997 555.09C783.373 555.09 780.605 555.744 778.692 557.053C776.779 558.261 775.823 559.972 775.823 562.187C775.823 564.603 776.83 566.415 778.843 567.623C780.856 568.73 783.574 569.586 786.997 570.19L791.225 570.945C796.862 571.952 801.946 573.311 806.476 575.022C811.107 576.633 814.731 578.998 817.348 582.119C820.066 585.139 821.425 589.266 821.425 594.501C821.425 602.353 818.556 608.443 812.818 612.772C807.181 617 799.58 619.114 790.017 619.114Z" fill="url(#paint3_linear_17_20)"/>
<defs>
<linearGradient id="paint0_linear_17_20" x1="84.2351" y1="464" x2="401.738" y2="396.068" gradientUnits="userSpaceOnUse">
<stop stop-color="#999999"/>
<stop offset="1" stop-color="#999999" stop-opacity="0"/>
</linearGradient>
<linearGradient id="paint1_linear_17_20" x1="241.176" y1="464" x2="709.958" y2="306.388" gradientUnits="userSpaceOnUse">
<stop stop-color="#999999"/>
<stop offset="1" stop-color="#999999" stop-opacity="0"/>
</linearGradient>
<linearGradient id="paint2_linear_17_20" x1="487.849" y1="329.833" x2="743.062" y2="205.007" gradientUnits="userSpaceOnUse">
<stop stop-color="#999999"/>
<stop offset="1" stop-color="#999999" stop-opacity="0"/>
</linearGradient>
<linearGradient id="paint3_linear_17_20" x1="77.197" y1="861.932" x2="863.198" y2="770.464" gradientUnits="userSpaceOnUse">
<stop stop-color="#1E1E1E"/>
<stop offset="1" stop-color="white" stop-opacity="0"/>
</linearGradient>
<clipPath id="clip0_17_20">
<rect width="664" height="468" fill="white" transform="translate(83)"/>
</clipPath>
</defs>
</svg>
